# xmcd
#
# Track frame offsets:
#	150
#	15866
#	35388
#	49909
#	69508
#	81964
#	97875
#	113843
#	127109
#	142790
#	156592
#	171846
#	184973
#	201100
#	217359
#	231905
#	247690
#	262788
#
# Disc length: 3686 seconds
#
# Revision: 0
# Processed by: cddbd v1.5.2PL0 Copyright (c) Steve Scherf et al.
# Submitted via: EasyCDDAExtractor 5.0.5.1
#
DISCID=f60e6412
DTITLE=Various Artist - Hott Country VOL 115
DYEAR=1900
DGENRE=Country
TTITLE0=Gretchen Wilson - ALL JACKED UP
TTITLE1=Faith Hill - Like We Never Loved At All
TTITLE2=Martina McBride - I NEVER PROMISED YOU A ROSE GARDEN
TTITLE3=Rascal Flatts - SKIN
TTITLE4=Amber Dotson - I AIN'T YOUR MAMA
TTITLE5=Darryl Worley - I LOVE HER SHE HATES ME
TTITLE6=Bobby Pinson - ONE MORE BELIEVER
TTITLE7=Buddy Jewel - SO GONE
TTITLE8=Gord Bamford - ALL ABOUT HER
TTITLE9=Joe Nichols - TEQUILA MAKES HER CLOTHES FALL OFF
TTITLE10=Alan Jackson - USA TODAY
TTITLE11=Jamey Johnson - The Dollar
TTITLE12=Willie Nelson - THE HARDER THEY COME
TTITLE13=Rascal Flatts - HERE'S TO YOU
TTITLE14=Jessica Andrews - SUMMER GIRL
TTITLE15=Josh Turner - YOUR MAN
TTITLE16=Patty Loveless - KEEP YOUR DISTANCE
TTITLE17=Jessica Robinson - I LIKE THIS PLACE
EXTD=
EXTT0=
EXTT1=
EXTT2=
EXTT3=
EXTT4=
EXTT5=
EXTT6=
EXTT7=
EXTT8=
EXTT9=
EXTT10=
EXTT11=
EXTT12=
EXTT13=
EXTT14=
EXTT15=
EXTT16=
EXTT17=
PLAYORDER=
